<mxfile host="drawio.corp.amazon.com" modified="2024-01-31T13:28:04.785Z" agent="Mozilla/5.0 (Macintosh; Intel Mac OS X 10_15_7) AppleWebKit/537.36 (KHTML, like Gecko) Chrome/120.0.0.0 Safari/537.36" version="21.7.4" etag="r1rK4FHmCKwm5ApXqkru" type="device">
  <diagram id="NTFipg766BHHSPOajZMf" name="Page-1">
    <mxGraphModel dx="2924" dy="1036" grid="1" gridSize="10" guides="1" tooltips="1" connect="1" arrows="1" fold="1" page="1" pageScale="1" pageWidth="850" pageHeight="1100" math="0" shadow="0">
      <root>
        <mxCell id="0" />
        <mxCell id="1" parent="0" />
        <mxCell id="2" value="VPC" style="points=[[0,0],[0.25,0],[0.5,0],[0.75,0],[1,0],[1,0.25],[1,0.5],[1,0.75],[1,1],[0.75,1],[0.5,1],[0.25,1],[0,1],[0,0.75],[0,0.5],[0,0.25]];outlineConnect=0;gradientColor=none;html=1;whiteSpace=wrap;fontSize=12;fontStyle=0;container=1;pointerEvents=0;collapsible=0;recursiveResize=0;shape=mxgraph.aws4.group;grIcon=mxgraph.aws4.group_vpc;strokeColor=#248814;fillColor=none;verticalAlign=top;align=left;spacingLeft=30;fontColor=#AAB7B8;dashed=0;" parent="1" vertex="1">
          <mxGeometry x="20" y="70" width="520" height="450" as="geometry" />
        </mxCell>
        <mxCell id="8" value="&lt;font color=&quot;#000000&quot;&gt;Private with Egress Subnet Open App Port&lt;/font&gt;" style="sketch=0;outlineConnect=0;gradientColor=none;html=1;whiteSpace=wrap;fontSize=12;fontStyle=0;shape=mxgraph.aws4.group;grIcon=mxgraph.aws4.group_subnet;strokeColor=#000000;fillColor=none;verticalAlign=top;align=left;spacingLeft=30;fontColor=#E8E8E8;dashed=0;" parent="2" vertex="1">
          <mxGeometry x="184" y="60" width="156" height="350" as="geometry" />
        </mxCell>
        <mxCell id="9" value="&lt;font color=&quot;#000000&quot;&gt;Private Disconnected Subnet Open DB Port&amp;nbsp;&lt;/font&gt;" style="sketch=0;outlineConnect=0;gradientColor=none;html=1;whiteSpace=wrap;fontSize=12;fontStyle=0;shape=mxgraph.aws4.group;grIcon=mxgraph.aws4.group_subnet;strokeColor=#000000;fillColor=none;verticalAlign=top;align=left;spacingLeft=30;fontColor=#E8E8E8;dashed=0;" parent="2" vertex="1">
          <mxGeometry x="350" y="60" width="160" height="350" as="geometry" />
        </mxCell>
        <mxCell id="11" value="Amazon EC2" style="sketch=0;outlineConnect=0;fontColor=#232F3E;gradientColor=none;strokeColor=#ffffff;fillColor=#232F3E;dashed=0;verticalLabelPosition=middle;verticalAlign=bottom;align=center;html=1;whiteSpace=wrap;fontSize=10;fontStyle=1;spacing=3;shape=mxgraph.aws4.productIcon;prIcon=mxgraph.aws4.ec2;" parent="2" vertex="1">
          <mxGeometry x="220" y="130" width="80" height="100" as="geometry" />
        </mxCell>
        <mxCell id="12" value="Amazon EC2" style="sketch=0;outlineConnect=0;fontColor=#232F3E;gradientColor=none;strokeColor=#ffffff;fillColor=#232F3E;dashed=0;verticalLabelPosition=middle;verticalAlign=bottom;align=center;html=1;whiteSpace=wrap;fontSize=10;fontStyle=1;spacing=3;shape=mxgraph.aws4.productIcon;prIcon=mxgraph.aws4.ec2;" parent="2" vertex="1">
          <mxGeometry x="385" y="130" width="80" height="100" as="geometry" />
        </mxCell>
        <mxCell id="17" value="App SG" style="fontStyle=0;verticalAlign=top;align=center;spacingTop=-2;fillColor=none;rounded=0;whiteSpace=wrap;html=1;strokeColor=#FF0000;strokeWidth=2;dashed=1;container=1;collapsible=0;expand=0;recursiveResize=0;" parent="2" vertex="1">
          <mxGeometry x="195" y="100" width="140" height="170" as="geometry" />
        </mxCell>
        <mxCell id="18" value="DB SG" style="fontStyle=0;verticalAlign=top;align=center;spacingTop=-2;fillColor=none;rounded=0;whiteSpace=wrap;html=1;strokeColor=#FF0000;strokeWidth=2;dashed=1;container=1;collapsible=0;expand=0;recursiveResize=0;" parent="2" vertex="1">
          <mxGeometry x="356" y="100" width="144" height="170" as="geometry" />
        </mxCell>
        <mxCell id="GdZBLEXRwMBVRVHv9Efj-20" value="System Mangaer&lt;br&gt;VPC Endpoint" style="sketch=0;outlineConnect=0;fontColor=#232F3E;gradientColor=none;fillColor=#8C4FFF;strokeColor=none;dashed=0;verticalLabelPosition=bottom;verticalAlign=top;align=center;html=1;fontSize=12;fontStyle=0;aspect=fixed;pointerEvents=1;shape=mxgraph.aws4.endpoints;" vertex="1" parent="2">
          <mxGeometry x="396" y="297" width="60" height="60" as="geometry" />
        </mxCell>
        <mxCell id="GdZBLEXRwMBVRVHv9Efj-28" value="Internet GW" style="sketch=0;outlineConnect=0;fontColor=#232F3E;gradientColor=none;fillColor=#8C4FFF;strokeColor=none;dashed=0;verticalLabelPosition=bottom;verticalAlign=top;align=center;html=1;fontSize=12;fontStyle=0;aspect=fixed;pointerEvents=1;shape=mxgraph.aws4.internet_gateway;" vertex="1" parent="2">
          <mxGeometry x="-25" y="140" width="49" height="49" as="geometry" />
        </mxCell>
        <mxCell id="3" value="&lt;font color=&quot;#000000&quot;&gt;Public Subnet&lt;/font&gt;" style="sketch=0;outlineConnect=0;gradientColor=none;html=1;whiteSpace=wrap;fontSize=12;fontStyle=0;shape=mxgraph.aws4.group;grIcon=mxgraph.aws4.group_subnet;strokeColor=#000000;fillColor=none;verticalAlign=top;align=left;spacingLeft=30;fontColor=#E8E8E8;dashed=0;" parent="1" vertex="1">
          <mxGeometry x="50" y="130" width="150" height="350" as="geometry" />
        </mxCell>
        <mxCell id="10" value="Amazon EC2" style="sketch=0;outlineConnect=0;fontColor=#232F3E;gradientColor=none;strokeColor=#ffffff;fillColor=#232F3E;dashed=0;verticalLabelPosition=middle;verticalAlign=bottom;align=center;html=1;whiteSpace=wrap;fontSize=10;fontStyle=1;spacing=3;shape=mxgraph.aws4.productIcon;prIcon=mxgraph.aws4.ec2;" parent="1" vertex="1">
          <mxGeometry x="85" y="200" width="80" height="100" as="geometry" />
        </mxCell>
        <mxCell id="19" value="Web SG" style="fontStyle=0;verticalAlign=top;align=center;spacingTop=-2;fillColor=none;rounded=0;whiteSpace=wrap;html=1;strokeColor=#FF0000;strokeWidth=2;dashed=1;container=1;collapsible=0;expand=0;recursiveResize=0;" parent="1" vertex="1">
          <mxGeometry x="55" y="170" width="140" height="170" as="geometry" />
        </mxCell>
        <mxCell id="20" value="NAT GW" style="sketch=0;outlineConnect=0;fontColor=#232F3E;gradientColor=none;fillColor=#4D27AA;strokeColor=none;dashed=0;verticalLabelPosition=bottom;verticalAlign=top;align=center;html=1;fontSize=12;fontStyle=0;aspect=fixed;pointerEvents=1;shape=mxgraph.aws4.nat_gateway;" parent="1" vertex="1">
          <mxGeometry x="95" y="360" width="60" height="60" as="geometry" />
        </mxCell>
        <mxCell id="GdZBLEXRwMBVRVHv9Efj-26" style="edgeStyle=orthogonalEdgeStyle;rounded=0;orthogonalLoop=1;jettySize=auto;html=1;" edge="1" parent="1" source="GdZBLEXRwMBVRVHv9Efj-21" target="18">
          <mxGeometry relative="1" as="geometry" />
        </mxCell>
        <mxCell id="GdZBLEXRwMBVRVHv9Efj-21" value="AWS Systems ManaSession Manager" style="sketch=0;outlineConnect=0;fontColor=#232F3E;gradientColor=none;strokeColor=#ffffff;fillColor=#232F3E;dashed=0;verticalLabelPosition=middle;verticalAlign=bottom;align=center;html=1;whiteSpace=wrap;fontSize=10;fontStyle=1;spacing=3;shape=mxgraph.aws4.productIcon;prIcon=mxgraph.aws4.systems_manager;" vertex="1" parent="1">
          <mxGeometry x="580" y="360" width="84" height="140" as="geometry" />
        </mxCell>
        <mxCell id="GdZBLEXRwMBVRVHv9Efj-24" style="edgeStyle=orthogonalEdgeStyle;rounded=0;orthogonalLoop=1;jettySize=auto;html=1;" edge="1" parent="1" source="GdZBLEXRwMBVRVHv9Efj-23" target="GdZBLEXRwMBVRVHv9Efj-21">
          <mxGeometry relative="1" as="geometry" />
        </mxCell>
        <mxCell id="GdZBLEXRwMBVRVHv9Efj-27" value="SSH Access&lt;br&gt;To Any EC2 Instance" style="edgeLabel;html=1;align=center;verticalAlign=middle;resizable=0;points=[];" vertex="1" connectable="0" parent="GdZBLEXRwMBVRVHv9Efj-24">
          <mxGeometry x="0.355" y="-1" relative="1" as="geometry">
            <mxPoint as="offset" />
          </mxGeometry>
        </mxCell>
        <mxCell id="GdZBLEXRwMBVRVHv9Efj-23" value="Ops User" style="sketch=0;outlineConnect=0;fontColor=#232F3E;gradientColor=none;fillColor=#232F3D;strokeColor=none;dashed=0;verticalLabelPosition=bottom;verticalAlign=top;align=center;html=1;fontSize=12;fontStyle=0;aspect=fixed;pointerEvents=1;shape=mxgraph.aws4.user;" vertex="1" parent="1">
          <mxGeometry x="710" y="180" width="78" height="78" as="geometry" />
        </mxCell>
      </root>
    </mxGraphModel>
  </diagram>
</mxfile>
